<svg width="419" height="112" viewBox="0 0 419 112" fill="none" xmlns="http://www.w3.org/2000/svg">
<path d="M71.25 63.5938C71.1042 66.7604 70.25 69.5625 68.6875 72C67.125 74.4167 64.9271 76.2917 62.0938 77.625C59.2812 78.9583 56.0625 79.625 52.4375 79.625C46.4583 79.625 41.75 77.6771 38.3125 73.7812C34.875 69.8854 33.1562 64.3854 33.1562 57.2812V55.0312C33.1562 50.5729 33.9271 46.6771 35.4688 43.3438C37.0312 39.9896 39.2708 37.4062 42.1875 35.5938C45.1042 33.7604 48.4792 32.8438 52.3125 32.8438C57.8333 32.8438 62.2708 34.3021 65.625 37.2188C68.9792 40.1146 70.8854 44.1146 71.3438 49.2188H60.4062C60.3229 46.4479 59.625 44.4583 58.3125 43.25C57 42.0417 55 41.4375 52.3125 41.4375C49.5833 41.4375 47.5833 42.4583 46.3125 44.5C45.0417 46.5417 44.375 49.8021 44.3125 54.2812V57.5C44.3125 62.3542 44.9167 65.8229 46.125 67.9062C47.3542 69.9896 49.4583 71.0312 52.4375 71.0312C54.9583 71.0312 56.8854 70.4375 58.2188 69.25C59.5521 68.0625 60.2604 66.1771 60.3438 63.5938H71.25ZM74.625 61.7812C74.625 58.4062 75.2812 55.4062 76.5938 52.7812C77.9062 50.1354 79.7917 48.1042 82.25 46.6875C84.7083 45.2708 87.5938 44.5625 90.9062 44.5625C95.9688 44.5625 99.9583 46.1354 102.875 49.2812C105.792 52.4062 107.25 56.6667 107.25 62.0625V62.4375C107.25 67.7083 105.781 71.8958 102.844 75C99.9271 78.0833 95.9688 79.625 90.9688 79.625C86.1562 79.625 82.2917 78.1875 79.375 75.3125C76.4583 72.4167 74.8854 68.5 74.6562 63.5625L74.625 61.7812ZM85.1562 62.4375C85.1562 65.5625 85.6458 67.8542 86.625 69.3125C87.6042 70.7708 89.0521 71.5 90.9688 71.5C94.7188 71.5 96.6354 68.6146 96.7188 62.8438V61.7812C96.7188 55.7188 94.7812 52.6875 90.9062 52.6875C87.3854 52.6875 85.4792 55.3021 85.1875 60.5312L85.1562 62.4375ZM121.562 45.1875L121.906 49.1562C124.24 46.0938 127.458 44.5625 131.562 44.5625C135.083 44.5625 137.708 45.6146 139.438 47.7188C141.188 49.8229 142.094 52.9896 142.156 57.2188V79H131.594V57.6562C131.594 55.9479 131.25 54.6979 130.562 53.9062C129.875 53.0938 128.625 52.6875 126.812 52.6875C124.75 52.6875 123.219 53.5 122.219 55.125V79H111.688V45.1875H121.562ZM160.281 36.7812V45.1875H165.844V52.5H160.281V67.9688C160.281 69.2396 160.51 70.125 160.969 70.625C161.427 71.125 162.333 71.375 163.688 71.375C164.729 71.375 165.604 71.3125 166.312 71.1875V78.7188C164.417 79.3229 162.438 79.625 160.375 79.625C156.75 79.625 154.073 78.7708 152.344 77.0625C150.615 75.3542 149.75 72.7604 149.75 69.2812V52.5H145.438V45.1875H149.75V36.7812H160.281ZM190.469 54.7188L187 54.4688C183.688 54.4688 181.562 55.5104 180.625 57.5938V79H170.094V45.1875H179.969L180.312 49.5312C182.083 46.2188 184.552 44.5625 187.719 44.5625C188.844 44.5625 189.823 44.6875 190.656 44.9375L190.469 54.7188ZM191.812 61.7812C191.812 58.4062 192.469 55.4062 193.781 52.7812C195.094 50.1354 196.979 48.1042 199.438 46.6875C201.896 45.2708 204.781 44.5625 208.094 44.5625C213.156 44.5625 217.146 46.1354 220.062 49.2812C222.979 52.4062 224.438 56.6667 224.438 62.0625V62.4375C224.438 67.7083 222.969 71.8958 220.031 75C217.115 78.0833 213.156 79.625 208.156 79.625C203.344 79.625 199.479 78.1875 196.562 75.3125C193.646 72.4167 192.073 68.5 191.844 63.5625L191.812 61.7812ZM202.344 62.4375C202.344 65.5625 202.833 67.8542 203.812 69.3125C204.792 70.7708 206.24 71.5 208.156 71.5C211.906 71.5 213.823 68.6146 213.906 62.8438V61.7812C213.906 55.7188 211.969 52.6875 208.094 52.6875C204.573 52.6875 202.667 55.3021 202.375 60.5312L202.344 62.4375ZM240.188 79H229.625V31H240.188V79ZM257.812 79H247.25V31H257.812V79ZM283.375 79C283 78.3125 282.667 77.3021 282.375 75.9688C280.438 78.4062 277.729 79.625 274.25 79.625C271.062 79.625 268.354 78.6667 266.125 76.75C263.896 74.8125 262.781 72.3854 262.781 69.4688C262.781 65.8021 264.135 63.0312 266.844 61.1562C269.552 59.2812 273.49 58.3438 278.656 58.3438H281.906V56.5625C281.906 53.4583 280.562 51.9062 277.875 51.9062C275.375 51.9062 274.125 53.1354 274.125 55.5938H263.594C263.594 52.3229 264.979 49.6667 267.75 47.625C270.542 45.5833 274.094 44.5625 278.406 44.5625C282.719 44.5625 286.125 45.6146 288.625 47.7188C291.125 49.8229 292.406 52.7083 292.469 56.375V71.3438C292.51 74.4479 292.99 76.8229 293.906 78.4688V79H283.375ZM276.781 72.125C278.094 72.125 279.177 71.8438 280.031 71.2812C280.906 70.7188 281.531 70.0833 281.906 69.375V63.9688H278.844C275.177 63.9688 273.344 65.6146 273.344 68.9062C273.344 69.8646 273.667 70.6458 274.312 71.25C274.958 71.8333 275.781 72.125 276.781 72.125Z" fill="white"/>
<path d="M334.125 64.5625C333.562 69.375 331.781 73.0938 328.781 75.7188C325.802 78.3229 321.833 79.625 316.875 79.625C311.5 79.625 307.188 77.6979 303.938 73.8438C300.708 69.9896 299.094 64.8333 299.094 58.375V54C299.094 49.7708 299.844 46.0521 301.344 42.8438C302.865 39.6354 305.01 37.1771 307.781 35.4688C310.552 33.7396 313.76 32.875 317.406 32.875C322.24 32.875 326.115 34.2292 329.031 36.9375C331.948 39.625 333.646 43.3542 334.125 48.125H328.094C327.573 44.5 326.438 41.875 324.688 40.25C322.958 38.625 320.531 37.8125 317.406 37.8125C313.573 37.8125 310.562 39.2292 308.375 42.0625C306.208 44.8958 305.125 48.9271 305.125 54.1562V58.5625C305.125 63.5 306.156 67.4271 308.219 70.3438C310.281 73.2604 313.167 74.7188 316.875 74.7188C320.208 74.7188 322.76 73.9688 324.531 72.4688C326.323 70.9479 327.51 68.3125 328.094 64.5625H334.125ZM348.375 74.0938H369.938V79H342.344V33.5H348.375V74.0938ZM383.219 79H377.219V33.5H383.219V79Z" fill="#5A0FC8"/>
</svg>
