<svg width="419" height="90" viewBox="0 0 419 90" fill="none" xmlns="http://www.w3.org/2000/svg">
<path d="M71.25 54.5938C71.1042 57.7604 70.25 60.5625 68.6875 63C67.125 65.4167 64.9271 67.2917 62.0938 68.625C59.2812 69.9583 56.0625 70.625 52.4375 70.625C46.4583 70.625 41.75 68.6771 38.3125 64.7812C34.875 60.8854 33.1562 55.3854 33.1562 48.2812V46.0312C33.1562 41.5729 33.9271 37.6771 35.4688 34.3438C37.0312 30.9896 39.2708 28.4062 42.1875 26.5938C45.1042 24.7604 48.4792 23.8438 52.3125 23.8438C57.8333 23.8438 62.2708 25.3021 65.625 28.2188C68.9792 31.1146 70.8854 35.1146 71.3438 40.2188H60.4062C60.3229 37.4479 59.625 35.4583 58.3125 34.25C57 33.0417 55 32.4375 52.3125 32.4375C49.5833 32.4375 47.5833 33.4583 46.3125 35.5C45.0417 37.5417 44.375 40.8021 44.3125 45.2812V48.5C44.3125 53.3542 44.9167 56.8229 46.125 58.9062C47.3542 60.9896 49.4583 62.0312 52.4375 62.0312C54.9583 62.0312 56.8854 61.4375 58.2188 60.25C59.5521 59.0625 60.2604 57.1771 60.3438 54.5938H71.25ZM74.625 52.7812C74.625 49.4062 75.2812 46.4062 76.5938 43.7812C77.9062 41.1354 79.7917 39.1042 82.25 37.6875C84.7083 36.2708 87.5938 35.5625 90.9062 35.5625C95.9688 35.5625 99.9583 37.1354 102.875 40.2812C105.792 43.4062 107.25 47.6667 107.25 53.0625V53.4375C107.25 58.7083 105.781 62.8958 102.844 66C99.9271 69.0833 95.9688 70.625 90.9688 70.625C86.1562 70.625 82.2917 69.1875 79.375 66.3125C76.4583 63.4167 74.8854 59.5 74.6562 54.5625L74.625 52.7812ZM85.1562 53.4375C85.1562 56.5625 85.6458 58.8542 86.625 60.3125C87.6042 61.7708 89.0521 62.5 90.9688 62.5C94.7188 62.5 96.6354 59.6146 96.7188 53.8438V52.7812C96.7188 46.7188 94.7812 43.6875 90.9062 43.6875C87.3854 43.6875 85.4792 46.3021 85.1875 51.5312L85.1562 53.4375ZM121.562 36.1875L121.906 40.1562C124.24 37.0938 127.458 35.5625 131.562 35.5625C135.083 35.5625 137.708 36.6146 139.438 38.7188C141.188 40.8229 142.094 43.9896 142.156 48.2188V70H131.594V48.6562C131.594 46.9479 131.25 45.6979 130.562 44.9062C129.875 44.0938 128.625 43.6875 126.812 43.6875C124.75 43.6875 123.219 44.5 122.219 46.125V70H111.688V36.1875H121.562ZM160.281 27.7812V36.1875H165.844V43.5H160.281V58.9688C160.281 60.2396 160.51 61.125 160.969 61.625C161.427 62.125 162.333 62.375 163.688 62.375C164.729 62.375 165.604 62.3125 166.312 62.1875V69.7188C164.417 70.3229 162.438 70.625 160.375 70.625C156.75 70.625 154.073 69.7708 152.344 68.0625C150.615 66.3542 149.75 63.7604 149.75 60.2812V43.5H145.438V36.1875H149.75V27.7812H160.281ZM190.469 45.7188L187 45.4688C183.688 45.4688 181.562 46.5104 180.625 48.5938V70H170.094V36.1875H179.969L180.312 40.5312C182.083 37.2188 184.552 35.5625 187.719 35.5625C188.844 35.5625 189.823 35.6875 190.656 35.9375L190.469 45.7188ZM191.812 52.7812C191.812 49.4062 192.469 46.4062 193.781 43.7812C195.094 41.1354 196.979 39.1042 199.438 37.6875C201.896 36.2708 204.781 35.5625 208.094 35.5625C213.156 35.5625 217.146 37.1354 220.062 40.2812C222.979 43.4062 224.438 47.6667 224.438 53.0625V53.4375C224.438 58.7083 222.969 62.8958 220.031 66C217.115 69.0833 213.156 70.625 208.156 70.625C203.344 70.625 199.479 69.1875 196.562 66.3125C193.646 63.4167 192.073 59.5 191.844 54.5625L191.812 52.7812ZM202.344 53.4375C202.344 56.5625 202.833 58.8542 203.812 60.3125C204.792 61.7708 206.24 62.5 208.156 62.5C211.906 62.5 213.823 59.6146 213.906 53.8438V52.7812C213.906 46.7188 211.969 43.6875 208.094 43.6875C204.573 43.6875 202.667 46.3021 202.375 51.5312L202.344 53.4375ZM240.188 70H229.625V22H240.188V70ZM257.812 70H247.25V22H257.812V70ZM283.375 70C283 69.3125 282.667 68.3021 282.375 66.9688C280.438 69.4062 277.729 70.625 274.25 70.625C271.062 70.625 268.354 69.6667 266.125 67.75C263.896 65.8125 262.781 63.3854 262.781 60.4688C262.781 56.8021 264.135 54.0312 266.844 52.1562C269.552 50.2812 273.49 49.3438 278.656 49.3438H281.906V47.5625C281.906 44.4583 280.562 42.9062 277.875 42.9062C275.375 42.9062 274.125 44.1354 274.125 46.5938H263.594C263.594 43.3229 264.979 40.6667 267.75 38.625C270.542 36.5833 274.094 35.5625 278.406 35.5625C282.719 35.5625 286.125 36.6146 288.625 38.7188C291.125 40.8229 292.406 43.7083 292.469 47.375V62.3438C292.51 65.4479 292.99 67.8229 293.906 69.4688V70H283.375ZM276.781 63.125C278.094 63.125 279.177 62.8438 280.031 62.2812C280.906 61.7188 281.531 61.0833 281.906 60.375V54.9688H278.844C275.177 54.9688 273.344 56.6146 273.344 59.9062C273.344 60.8646 273.667 61.6458 274.312 62.25C274.958 62.8333 275.781 63.125 276.781 63.125Z" fill="#171717"/>
<path d="M334.125 55.5625C333.562 60.375 331.781 64.0938 328.781 66.7188C325.802 69.3229 321.833 70.625 316.875 70.625C311.5 70.625 307.188 68.6979 303.938 64.8438C300.708 60.9896 299.094 55.8333 299.094 49.375V45C299.094 40.7708 299.844 37.0521 301.344 33.8438C302.865 30.6354 305.01 28.1771 307.781 26.4688C310.552 24.7396 313.76 23.875 317.406 23.875C322.24 23.875 326.115 25.2292 329.031 27.9375C331.948 30.625 333.646 34.3542 334.125 39.125H328.094C327.573 35.5 326.438 32.875 324.688 31.25C322.958 29.625 320.531 28.8125 317.406 28.8125C313.573 28.8125 310.562 30.2292 308.375 33.0625C306.208 35.8958 305.125 39.9271 305.125 45.1562V49.5625C305.125 54.5 306.156 58.4271 308.219 61.3438C310.281 64.2604 313.167 65.7188 316.875 65.7188C320.208 65.7188 322.76 64.9688 324.531 63.4688C326.323 61.9479 327.51 59.3125 328.094 55.5625H334.125ZM348.375 65.0938H369.938V70H342.344V24.5H348.375V65.0938ZM383.219 70H377.219V24.5H383.219V70Z" fill="#5A0FC8"/>
</svg>
